<svg xmlns="http://www.w3.org/2000/svg" width="31.043" height="31.043" viewBox="0 0 31.043 31.043">
  <path id="account_circle_FILL0_wght400_GRAD0_opsz48" d="M9.51,28.252a22.349,22.349,0,0,1,4.85-2.619,14.44,14.44,0,0,1,5.161-.912,14.6,14.6,0,0,1,5.18.912,22.171,22.171,0,0,1,4.87,2.619A13.622,13.622,0,0,0,32,24.023a14.024,14.024,0,0,0,.718-4.5A12.927,12.927,0,0,0,19.521,6.328,12.927,12.927,0,0,0,6.328,19.521a13.688,13.688,0,0,0,.737,4.5A13.965,13.965,0,0,0,9.51,28.252Zm10.011-7.567a5.235,5.235,0,0,1-5.316-5.316,5.235,5.235,0,0,1,5.316-5.316,5.235,5.235,0,0,1,5.316,5.316,5.235,5.235,0,0,1-5.316,5.316Zm0,14.357a15.019,15.019,0,0,1-6.015-1.222,15.638,15.638,0,0,1-8.285-8.285,15.457,15.457,0,0,1,0-12.049,15.691,15.691,0,0,1,8.285-8.265,15.457,15.457,0,0,1,12.049,0,15.744,15.744,0,0,1,8.265,8.265,15.457,15.457,0,0,1,0,12.049,15.691,15.691,0,0,1-8.265,8.285A14.976,14.976,0,0,1,19.521,35.043Zm0-2.328a14.231,14.231,0,0,0,4.171-.621,12.4,12.4,0,0,0,4.016-2.173,16.889,16.889,0,0,0-4.036-2.134,12.06,12.06,0,0,0-8.3,0,16.889,16.889,0,0,0-4.036,2.134,12.4,12.4,0,0,0,4.016,2.173A14.231,14.231,0,0,0,19.521,32.715Zm0-14.357a2.859,2.859,0,0,0,2.988-2.988,2.989,2.989,0,1,0-5.976,0,2.859,2.859,0,0,0,2.988,2.988Zm0-2.988Zm0,14.513Z" transform="translate(-4 -4)" fill="#009733"/>
</svg>
