<svg xmlns="http://www.w3.org/2000/svg" width="31.508" height="32" viewBox="0 0 31.508 32">
  <path id="shopping_cart_FILL0_wght400_GRAD0_opsz48_1_" data-name="shopping_cart_FILL0_wght400_GRAD0_opsz48 (1)" d="M12,36a2.884,2.884,0,1,1,2.023-4.926,2.749,2.749,0,0,1,.861,2.043A2.872,2.872,0,0,1,12,36Zm16.02,0a2.884,2.884,0,1,1,2.023-4.926,2.748,2.748,0,0,1,.861,2.043A2.872,2.872,0,0,1,28.022,36ZM9.919,9.567,14.325,18.7H25.859l5.006-9.131H9.919Zm-1.2-2.4H32.307q1.282,0,1.622.781a1.868,1.868,0,0,1-.22,1.742L28.3,19.419A3.764,3.764,0,0,1,27.181,20.6a2.684,2.684,0,0,1-1.562.5H13.484l-2.243,4.165H30.905v2.4H11.6a2.688,2.688,0,0,1-2.423-1.121,2.3,2.3,0,0,1,.02-2.523L11.762,19.3,5.674,6.4H2.55V4H7.236ZM14.325,18.7h0Z" transform="translate(-2.551 -4)" fill="#009733"/>
</svg>
